Coordinates
version=1
nRows=49
nColumns=12
inDegrees=yes

Units are S.I. units (second, meters, Newtons, ...)
Angles are in degrees

endheader
time	SC_y	SC_z	SC_x	AC_y	AC_z	AC_x	GH_y	GH_z	GH_yy	EL_x	PS_y
       0.0              -40.47          35.22          41.68          41.46         -13.04         -9.627          160.1          24.57         -7.744          40.97          51.69
   0.03812              -40.47          35.22          41.68          41.47         -13.04         -9.623          160.1          24.58         -7.758          40.98          51.71
   0.07624              -40.47          35.22          41.67          41.47         -13.04         -9.619          160.0          24.58         -7.772          40.99          51.72
    0.1144              -40.48          35.21          41.67          41.47         -13.03         -9.615          160.0          24.59         -7.787           41.0          51.74
    0.1525              -40.48          35.21          41.66          41.48         -13.03          -9.61          160.0           24.6         -7.803          41.01          51.76
    0.1906              -40.48          35.21          41.65          41.48         -13.03         -9.605          159.9           24.6         -7.821          41.02          51.78
    0.2287              -40.49          35.21          41.65          41.48         -13.03         -9.599          159.9          24.61         -7.839          41.03           51.8
    0.2668              -40.49          35.21          41.64          41.48         -13.02         -9.593          159.8          24.62         -7.859          41.04          51.82
     0.305              -40.49           35.2          41.63          41.49         -13.02         -9.587          159.8          24.63          -7.88          41.05          51.85
    0.3431               -40.5           35.2          41.63          41.49         -13.02         -9.581          159.7          24.64         -7.903          41.06          51.87
    0.3812               -40.5           35.2          41.62           41.5         -13.01         -9.573          159.7          24.65         -7.928          41.08           51.9
    0.4193              -40.51           35.2          41.61           41.5         -13.01         -9.566          159.6          24.66         -7.954          41.09          51.93
    0.4575              -40.51          35.19           41.6          41.51          -13.0         -9.558          159.6          24.67         -7.982          41.11          51.96
    0.4956              -40.52          35.19          41.59          41.51          -13.0         -9.549          159.5          24.68         -8.013          41.13           52.0
    0.5337              -40.52          35.19          41.58          41.52         -12.99         -9.539          159.4           24.7         -8.046          41.14          52.03
    0.5718              -40.53          35.18          41.56          41.52         -12.99         -9.528          159.3          24.71         -8.082          41.17          52.07
    0.6099              -40.54          35.18          41.55          41.53         -12.98         -9.517          159.2          24.73         -8.121          41.19          52.12
    0.6481              -40.54          35.17          41.54          41.54         -12.97         -9.505          159.1          24.74         -8.164          41.21          52.17
    0.6862              -40.55          35.17          41.52          41.55         -12.96         -9.491          159.0          24.76          -8.21          41.24          52.22
    0.7243              -40.56          35.16           41.5          41.56         -12.96         -9.476          158.9          24.78         -8.261          41.27          52.28
    0.7624              -40.57          35.16          41.48          41.56         -12.95          -9.46          158.8          24.81         -8.317           41.3          52.34
    0.8005              -40.58          35.15          41.46          41.58         -12.94         -9.442          158.6          24.83         -8.379          41.33          52.41
    0.8387              -40.59          35.15          41.44          41.59         -12.93         -9.422          158.5          24.86         -8.447          41.37          52.49
    0.8768              -40.61          35.14          41.41           41.6         -12.91           -9.4          158.3          24.89         -8.522          41.41          52.57
    0.9149              -40.62          35.13          41.39          41.62          -12.9         -9.375          158.1          24.93         -8.606          41.46          52.67
     0.953              -40.64          35.12          41.35          41.63         -12.88         -9.348          157.9          24.97         -8.699          41.52          52.77
    0.9911              -40.66          35.11          41.32          41.65         -12.87         -9.318          157.6          25.01         -8.804          41.57          52.89
     1.029              -40.68           35.1          41.28          41.67         -12.85         -9.283          157.4          25.06         -8.921          41.64          53.03
     1.067               -40.7          35.08          41.23          41.69         -12.82         -9.244          157.1          25.11         -9.054          41.72          53.18
     1.106              -40.73          35.07          41.18          41.72          -12.8           -9.2          156.7          25.17         -9.205           41.8          53.35
     1.144              -40.76          35.05          41.12          41.75         -12.77          -9.15          156.3          25.24         -9.378           41.9          53.54
     1.182               -40.8          35.03          41.05          41.79         -12.74         -9.092          155.8          25.33         -9.575          42.01          53.77
      1.22              -40.84           35.0          40.98          41.82          -12.7         -9.025          155.3          25.42         -9.804          42.14          54.03
     1.258              -40.89          34.98          40.88          41.87         -12.66         -8.948          154.7          25.53         -10.07          42.29          54.33
     1.296              -40.94          34.94          40.78          41.93          -12.6         -8.857          154.0          25.66         -10.38          42.47          54.68
     1.334              -41.01           34.9          40.65          41.99         -12.54          -8.75          153.1          25.81         -10.75          42.68          55.09
     1.372              -41.08          34.86           40.5          42.07         -12.47         -8.623          152.1          25.99         -11.18          42.92          55.59
      1.41              -41.18           34.8          40.33          42.16         -12.38         -8.471          150.9           26.2          -11.7          43.22          56.18
     1.449              -41.29          34.74          40.11          42.27         -12.28         -8.287          149.4          26.46         -12.33          43.58          56.89
     1.487              -41.43          34.66          39.85           42.4         -12.15         -8.062          147.6          26.78          -13.1          44.01          57.77
     1.525               -41.6          34.56          39.52          42.57         -11.99         -7.784          145.4          27.17         -14.05          44.55          58.84
     1.563              -41.81          34.43          39.12          42.78          -11.8         -7.438          142.7          27.66         -15.24          45.23          60.19
     1.601              -42.08          34.28           38.6          43.04         -11.55         -7.001          139.2          28.28         -16.73          46.07          61.88
     1.639              -42.42          34.08          37.95          43.37         -11.23         -6.447          134.7          29.06         -18.63          47.15          64.03
     1.677              -42.86          33.82          37.12          43.79         -10.83         -5.737          129.1          30.07         -21.06          48.53          66.79
     1.715              -43.41           33.5          36.06          44.34         -10.31         -4.826          121.8          31.35         -24.18           50.3          70.32
     1.754              -44.13          33.08          34.69          45.04         -9.651         -3.662          112.5           33.0         -28.17          52.56          74.84
     1.792              -45.03          32.55          32.98          45.91         -8.819         -2.199          100.9          35.06         -33.17           55.4          80.52
      1.83              -46.12          31.91          30.89          46.98         -7.805        -0.4153          86.65          37.58         -39.28          58.86          87.43
